<svg xmlns="http://www.w3.org/2000/svg" xmlns:svg="http://www.w3.org/2000/svg" id="svg446" width="120" height="120" version="1.1" viewBox="0 0 31.75 31.75"><metadata id="metadata443"/><g id="layer1" transform="translate(357.06977,-214.71208)"><g id="g1701" transform="translate(-206.63958,1.9843719)"><path style="fill:#97c554;fill-rule:nonzero;stroke:none;stroke-width:.264583" id="Path-1-Copy-9" d="m -147.27213,238.3694 c 1.26878,1.34364 8.23775,7.78352 19.17639,0.30954 7.90976,-6.15987 7.71215,-19.51473 6.95229,-23.54765 -0.26471,0.58693 -9.45213,20.70612 -26.12868,23.23811 z m 26.12762,-23.24152 c -0.0969,-0.04 -10.27316,-1.42742 -20.33323,5.05204 -6.24697,4.02353 -7.07274,9.91241 -6.78772,13.83641 14.62435,-1.63654 26.78921,-18.42706 27.12095,-18.88845 z"/><path style="fill:#709b30;fill-rule:nonzero;stroke:none;stroke-width:.264583" id="Path-1-Copy-8" d="m -121.14451,215.12788 c -0.0969,-0.04 -10.27316,-1.42742 -20.33323,5.05204 -6.24697,4.02353 -7.07274,9.91241 -6.78772,13.83641 14.62435,-1.63654 26.78921,-18.42706 27.12095,-18.88845 z"/></g></g></svg>