<svg xmlns="http://www.w3.org/2000/svg" xmlns:svg="http://www.w3.org/2000/svg" id="svg110" width="100pt" height="100pt" version="1.2" viewBox="0 0 100 100"><metadata id="metadata114"/><defs id="defs11"><clipPath id="clip1"><path id="path2" d="m 314,34 h 26.16016 V 65 H 314 Z m 0,0"/></clipPath><clipPath id="clip2"><path id="path5" d="m 190,75 h 6 v 9.339844 h -6 z m 0,0"/></clipPath><clipPath id="clip3"><path id="path8" d="m 328,75 h 7 v 9.339844 h -7 z m 0,0"/></clipPath></defs><g id="g935" transform="translate(5.5859392,9.2226577)"><path id="path105" d="m 44.546875,77.417969 c -13.894531,0 -25.195313,-11.304688 -25.195313,-25.195313 0,-13.890625 11.300782,-25.195312 25.195313,-25.195312 13.890625,0 25.191406,11.304687 25.191406,25.195312 0,13.890625 -11.300781,25.195313 -25.191406,25.195313 z M 85.585938,23.363281 H 3.246094 C 1.457031,23.363281 0,24.820312 0,26.609375 v 51.699219 c 0,1.789062 1.457031,3.246094 3.246094,3.246094 h 82.339844 c 1.789062,0 3.242187,-1.457032 3.242187,-3.246094 V 26.609375 c 0,-1.789063 -1.453125,-3.246094 -3.242187,-3.246094 z m -35.59375,29.476563 c -1.230469,-0.894532 -3.261719,-1.34375 -6.101563,-1.34375 -0.144531,0 -0.347656,0.0078 -0.617187,0.01953 -0.269532,0.01172 -0.46875,0.01953 -0.597657,0.01953 v 7.621094 c 0,1.8125 0.234375,2.921875 0.703125,3.335938 0.472656,0.410156 1.382813,0.617187 2.730469,0.617187 1.859375,0 3.277344,-0.5 4.257813,-1.496094 0.976562,-0.996093 1.464843,-2.441406 1.464843,-4.335937 0,-2.0625 -0.613281,-3.542969 -1.839843,-4.4375 z m -5.636719,-3.21875 c 2.351562,0 4.011719,-0.363282 4.992187,-1.085938 0.976563,-0.71875 1.464844,-1.933594 1.464844,-3.640625 0,-1.40625 -0.414062,-2.515625 -1.242188,-3.324219 -0.828124,-0.8125 -1.953124,-1.21875 -3.371093,-1.21875 -1.421875,0 -2.363281,0.191407 -2.828125,0.574219 -0.464844,0.378907 -0.695313,1.449219 -0.695313,3.203125 v 5.453125 c 0.199219,0.01172 0.421875,0.02344 0.660157,0.02734 0.238281,0.0078 0.578124,0.01172 1.019531,0.01172 z M 58.238281,60.59375 C 57.75,61.53125 57.035156,62.332031 56.09375,63 55.148438,63.65625 53.9375,64.125 52.449219,64.40625 51.5,64.585938 50.230469,64.699219 48.707031,64.765625 v 4.824219 c 0,0.902344 -0.679687,1.632812 -1.523437,1.632812 -0.84375,0 -1.527344,-0.730468 -1.527344,-1.632812 v -4.765625 h -3.054688 v 4.765625 c 0,0.902344 -0.683593,1.632812 -1.527343,1.632812 -0.84375,0 -1.527344,-0.730468 -1.527344,-1.632812 v -4.765625 h -6.945313 v -1.894531 l 1.109376,-0.08984 c 0.894531,-0.05859 1.507812,-0.289063 1.835937,-0.6875 C 35.871094,61.75 36.035156,60.753906 36.035156,59.15625 V 44.128906 c 0,-1.613281 -0.164062,-2.617187 -0.488281,-3.015625 -0.328125,-0.398437 -0.945313,-0.628906 -1.851563,-0.6875 l -1.09375,-0.07422 V 38.4375 h 6.945313 v -4.765625 c 0,-0.898437 0.683594,-1.628906 1.527344,-1.628906 0.84375,0 1.527343,0.730469 1.527343,1.628906 V 38.4375 h 1.71875 c 0.460938,0 0.898438,0.0078 1.335938,0.01953 v -4.785156 c 0,-0.898437 0.683594,-1.628906 1.527344,-1.628906 0.84375,0 1.523437,0.730469 1.523437,1.628906 v 4.933594 c 2.609375,0.210937 4.59375,0.632812 5.925781,1.273437 2,0.960938 2.996094,2.5625 2.996094,4.804688 0,1.621094 -0.683594,2.921875 -2.046875,3.90625 -1.367187,0.984375 -3.398437,1.621094 -6.09375,1.90625 3.246094,0.453125 5.636719,1.25 7.175781,2.386718 1.539063,1.140626 2.308594,2.675782 2.308594,4.609376 0,1.132812 -0.246094,2.167968 -0.734375,3.101563 z M 44.546875,29.191406 c -12.699219,0 -23.03125,10.332032 -23.03125,23.03125 0,12.699219 10.332031,23.03125 23.03125,23.03125 12.699219,0 23.027344,-10.332031 23.027344,-23.03125 0,-12.699218 -10.328125,-23.03125 -23.027344,-23.03125" style="fill:#475e87;fill-opacity:1;fill-rule:nonzero;stroke:none"/><path id="path107" d="m 56.578125,0 c -7.800781,0 -14.636719,4.113281 -18.476563,10.285156 5.1875,2.0625 9.445313,5.976563 11.960938,10.917969 H 78.324219 C 78.019531,9.441406 68.410156,0 56.578125,0 Z M 29.6875,10.824219 c -7.652344,0 -14.332031,4.183593 -17.910156,10.378906 H 47.601562 C 44.019531,15.007812 37.339844,10.824219 29.6875,10.824219" style="fill:#faba14;fill-opacity:1;fill-rule:nonzero;stroke:none"/></g></svg>