<svg xmlns="http://www.w3.org/2000/svg" xmlns:svg="http://www.w3.org/2000/svg" id="svg6661" width="41" height="41" fill="none" version="1.1" viewBox="0 0 34 53.615"><metadata id="metadata6667"/><defs id="defs6665"><mask id="mask1-5" width="34" height="26" x="0" y="0" mask-type="alpha" maskUnits="userSpaceOnUse"><path id="path6650-3" fill="#fff" fill-rule="evenodd" d="M 0.0258942,0.0581055 H 33.5358 V 25.5966 H 0.0258942 Z" clip-rule="evenodd"/></mask></defs><mask id="mask1" width="34" height="26" x="0" y="0" mask-type="alpha" maskUnits="userSpaceOnUse"><path id="path6650" fill="#fff" fill-rule="evenodd" d="M 0.0258942,0.0581055 H 33.5358 V 25.5966 H 0.0258942 Z" clip-rule="evenodd"/></mask><circle style="fill:#161616;fill-opacity:1;stroke-width:1.26101" id="path74402" cx="17" cy="26.808" r="22.885"/><g id="g74993" transform="matrix(0.99999223,0,0,1,0.21916794,-2.888692)"><g id="g6655" mask="url(#mask1-5)" transform="translate(0,13.207125)"><path id="path6653" fill="#f0f0f0" fill-rule="evenodd" d="M 20.7496,6.79342 C 20.8947,6.56544 21.0262,6.31245 21.1369,6.03884 21.3277,5.56699 21.4331,5.09599 21.4586,4.66707 21.5625,3.76191 21.344,3.02676 20.8303,2.80773 c -0.5051,-0.2153 -1.1671,0.12202 -1.7344,0.80241 0.001,-0.04512 0.0019,-0.09024 0.0019,-0.13587 0,-1.88655 -0.8565,-3.4161645 -1.9131,-3.4161645 -1.0566,0 -1.9131,1.5296145 -1.9131,3.4161645 0,0.13385 0.0047,0.26567 0.0131,0.39546 C 14.642,2.98772 13.7971,2.53581 13.1936,2.827 12.4388,3.19136 12.3475,4.57885 12.9898,5.92629 13.0974,6.15241 13.3389,6.54094 13.47,6.73309 5.27707,8.0398 0.613063,14.6871 0.0258942,25.5967 H 4.60871 C 5.09195,16.6155 9.26598,11.5425 16.8067,11.6981 c 6.9246,0.143 12.2167,4.6898 12.1456,13.8986 h 4.5825 C 33.6185,14.7324 28.2789,8.4819 20.7496,6.79342 Z" clip-rule="evenodd"/></g><path id="path6657" fill="#f0f0f0" fill-rule="evenodd" d="m 13.0001,30.207118 c -0.5524,0 -1.0001,0.5025 -1.0001,1.122 v 2.756 c 0,0.6197 0.4477,1.122 1.0001,1.122 0.5522,0 0.9999,-0.5023 0.9999,-1.122 v -2.756 c 0,-0.6195 -0.4477,-1.122 -0.9999,-1.122 z" clip-rule="evenodd"/><path id="path6659" fill="#f0f0f0" fill-rule="evenodd" d="m 20.9999,30.207118 c -0.5522,0 -0.9999,0.5025 -0.9999,1.122 v 2.756 c 0,0.6197 0.4477,1.122 0.9999,1.122 0.5524,0 1.0001,-0.5023 1.0001,-1.122 v -2.756 c 0,-0.6195 -0.4477,-1.122 -1.0001,-1.122 z" clip-rule="evenodd"/></g></svg>